<?xml version="1.0" encoding="utf-8"?>
<!DOCTYPE score-partwise
  PUBLIC '-//Recordare//DTD MusicXML 2.0 Partwise//EN'
  'http://www.musicxml.org/dtds/partwise.dtd'>
<score-partwise>
  <movement-title>Music21 Fragment</movement-title>
  <identification>
    <creator type="composer">Music21</creator>
    <encoding>
      <encoding-date>2016-11-05</encoding-date>
      <software>Music21</software>
    </encoding>
  </identification>
  <defaults>
    <scaling>
      <millimeters>7</millimeters>
      <tenths>40</tenths>
    </scaling>
  </defaults>
  <part-list>
    <score-part id="Pa23ad39a944b1c56b952c6cb572bb7c6">
      <part-name />
    </score-part>
  </part-list>
  <part id="Pa23ad39a944b1c56b952c6cb572bb7c6">
    <measure number="1">
      <attributes>
	<divisions>10080</divisions>
	<key>
	  <fifths>0</fifths>
	  <mode>minor</mode>
	</key>
	<clef>
	  <sign>F</sign>
	  <line>4</line>
	</clef>
      </attributes>
      <barline location="left">
	<repeat direction="forward" />
      </barline>
      <harmony>
	<root>
	  <root-step>A</root-step>
	</root>
	<kind>minor-seventh</kind>
      </harmony>
      <note>
	<pitch>
	  <step>C</step>
	  <octave>3</octave>
	</pitch>
	<duration>20160</duration>
	<type>half</type>
	<lyric number="1">
	  <syllabic>single</syllabic>
	  <text>3rd</text>
	</lyric>
      </note>
      <note>
	<pitch>
	  <step>G</step>
	  <octave>3</octave>
	</pitch>
	<duration>20160</duration>
	<type>half</type>
	<lyric number="1">
	  <syllabic>single</syllabic>
	  <text>7th</text>
	</lyric>
      </note>
    </measure>
    <measure number="2">
      <attributes>
	<divisions>10080</divisions>
      </attributes>
      <harmony>
	<root>
	  <root-step>A</root-step>
	</root>
	<kind>minor-seventh</kind>
      </harmony>
      <note>
	<pitch>
	  <step>C</step>
	  <octave>3</octave>
	</pitch>
	<duration>20160</duration>
	<type>half</type>
	<lyric number="1">
	  <syllabic>single</syllabic>
	  <text>3rd</text>
	</lyric>
      </note>
      <note>
	<pitch>
	  <step>G</step>
	  <octave>3</octave>
	</pitch>
	<duration>20160</duration>
	<type>half</type>
	<lyric number="1">
	  <syllabic>single</syllabic>
	  <text>7th</text>
	</lyric>
      </note>
    </measure>
    <measure number="3">
      <attributes>
	<divisions>10080</divisions>
      </attributes>
      <harmony>
	<root>
	  <root-step>C</root-step>
	</root>
	<kind>major-seventh</kind>
      </harmony>
      <note>
	<pitch>
	  <step>E</step>
	  <octave>3</octave>
	</pitch>
	<duration>20160</duration>
	<type>half</type>
	<lyric number="1">
	  <syllabic>single</syllabic>
	  <text>3rd</text>
	</lyric>
      </note>
      <note>
	<pitch>
	  <step>B</step>
	  <octave>3</octave>
	</pitch>
	<duration>20160</duration>
	<type>half</type>
	<lyric number="1">
	  <syllabic>single</syllabic>
	  <text>7th</text>
	</lyric>
      </note>
    </measure>
    <measure number="4">
      <print new-system="yes" />
      <attributes>
	<divisions>10080</divisions>
      </attributes>
      <harmony>
	<root>
	  <root-step>C</root-step>
	</root>
	<kind>major-seventh</kind>
      </harmony>
      <note>
	<pitch>
	  <step>E</step>
	  <octave>3</octave>
	</pitch>
	<duration>20160</duration>
	<type>half</type>
	<lyric number="1">
	  <syllabic>single</syllabic>
	  <text>3rd</text>
	</lyric>
      </note>
      <note>
	<pitch>
	  <step>B</step>
	  <octave>3</octave>
	</pitch>
	<duration>20160</duration>
	<type>half</type>
	<lyric number="1">
	  <syllabic>single</syllabic>
	  <text>7th</text>
	</lyric>
      </note>
    </measure>
    <measure number="5">
      <attributes>
	<divisions>10080</divisions>
      </attributes>
      <harmony>
	<root>
	  <root-step>E</root-step>
	</root>
	<kind>minor-seventh</kind>
      </harmony>
      <note>
	<pitch>
	  <step>G</step>
	  <octave>3</octave>
	</pitch>
	<duration>20160</duration>
	<type>half</type>
	<lyric number="1">
	  <syllabic>single</syllabic>
	  <text>3rd</text>
	</lyric>
      </note>
      <note>
	<pitch>
	  <step>D</step>
	  <octave>4</octave>
	</pitch>
	<duration>20160</duration>
	<type>half</type>
	<lyric number="1">
	  <syllabic>single</syllabic>
	  <text>7th</text>
	</lyric>
      </note>
    </measure>
    <measure number="6">
      <attributes>
	<divisions>10080</divisions>
      </attributes>
      <harmony>
	<root>
	  <root-step>B</root-step>
	</root>
	<kind>dominant</kind>
	<degree>
	  <degree-value>2</degree-value>
	  <degree-alter>-1</degree-alter>
	  <degree-type>None</degree-type>
	</degree>
      </harmony>
      <note>
	<pitch>
	  <step>D</step>
	  <alter>1</alter>
	  <octave>3</octave>
	</pitch>
	<duration>20160</duration>
	<type>half</type>
	<accidental>sharp</accidental>
	<lyric number="1">
	  <syllabic>single</syllabic>
	  <text>3rd</text>
	</lyric>
      </note>
      <note>
	<pitch>
	  <step>A</step>
	  <octave>3</octave>
	</pitch>
	<duration>20160</duration>
	<type>half</type>
	<lyric number="1">
	  <syllabic>single</syllabic>
	  <text>7th</text>
	</lyric>
      </note>
    </measure>
    <measure number="7">
      <attributes>
	<divisions>10080</divisions>
      </attributes>
      <harmony>
	<root>
	  <root-step>E</root-step>
	</root>
	<kind>minor-seventh</kind>
      </harmony>
      <note>
	<pitch>
	  <step>G</step>
	  <octave>3</octave>
	</pitch>
	<duration>10080</duration>
	<type>quarter</type>
	<lyric number="1">
	  <syllabic>single</syllabic>
	  <text>3rd</text>
	</lyric>
      </note>
      <note>
	<pitch>
	  <step>D</step>
	  <alter>0</alter>
	  <octave>4</octave>
	</pitch>
	<duration>10080</duration>
	<type>quarter</type>
	<accidental>natural</accidental>
	<lyric number="1">
	  <syllabic>single</syllabic>
	  <text>7th</text>
	</lyric>
      </note>
      <harmony>
	<root>
	  <root-step>A</root-step>
	</root>
	<kind>dominant</kind>
      </harmony>
      <note>
	<pitch>
	  <step>C</step>
	  <alter>1</alter>
	  <octave>3</octave>
	</pitch>
	<duration>10080</duration>
	<type>quarter</type>
	<accidental>sharp</accidental>
	<lyric number="1">
	  <syllabic>single</syllabic>
	  <text>3rd</text>
	</lyric>
      </note>
      <note>
	<pitch>
	  <step>G</step>
	  <octave>3</octave>
	</pitch>
	<duration>10080</duration>
	<type>quarter</type>
	<lyric number="1">
	  <syllabic>single</syllabic>
	  <text>7th</text>
	</lyric>
      </note>
    </measure>
    <measure number="8">
      <print new-system="yes" />
      <attributes>
	<divisions>10080</divisions>
      </attributes>
      <harmony>
	<root>
	  <root-step>D</root-step>
	</root>
	<kind>minor-seventh</kind>
      </harmony>
      <note>
	<pitch>
	  <step>F</step>
	  <octave>3</octave>
	</pitch>
	<duration>10080</duration>
	<type>quarter</type>
	<lyric number="1">
	  <syllabic>single</syllabic>
	  <text>3rd</text>
	</lyric>
      </note>
      <note>
	<pitch>
	  <step>C</step>
	  <alter>0</alter>
	  <octave>4</octave>
	</pitch>
	<duration>10080</duration>
	<type>quarter</type>
	<accidental>natural</accidental>
	<lyric number="1">
	  <syllabic>single</syllabic>
	  <text>7th</text>
	</lyric>
      </note>
      <harmony>
	<root>
	  <root-step>G</root-step>
	</root>
	<kind>dominant</kind>
      </harmony>
      <note>
	<pitch>
	  <step>B</step>
	  <octave>2</octave>
	</pitch>
	<duration>10080</duration>
	<type>quarter</type>
	<lyric number="1">
	  <syllabic>single</syllabic>
	  <text>3rd</text>
	</lyric>
      </note>
      <note>
	<pitch>
	  <step>F</step>
	  <octave>3</octave>
	</pitch>
	<duration>10080</duration>
	<type>quarter</type>
	<lyric number="1">
	  <syllabic>single</syllabic>
	  <text>7th</text>
	</lyric>
      </note>
      <barline location="right">
	<repeat direction="backward" />
      </barline>
    </measure>
    <measure number="9">
      <attributes>
	<divisions>10080</divisions>
      </attributes>
      <harmony>
	<root>
	  <root-step>C</root-step>
	</root>
	<kind>major-seventh</kind>
      </harmony>
      <note>
	<pitch>
	  <step>E</step>
	  <octave>3</octave>
	</pitch>
	<duration>20160</duration>
	<type>half</type>
	<lyric number="1">
	  <syllabic>single</syllabic>
	  <text>3rd</text>
	</lyric>
      </note>
      <note>
	<pitch>
	  <step>B</step>
	  <octave>3</octave>
	</pitch>
	<duration>20160</duration>
	<type>half</type>
	<lyric number="1">
	  <syllabic>single</syllabic>
	  <text>7th</text>
	</lyric>
      </note>
    </measure>
    <measure number="10">
      <attributes>
	<divisions>10080</divisions>
      </attributes>
      <harmony>
	<root>
	  <root-step>C</root-step>
	</root>
	<kind>major-seventh</kind>
      </harmony>
      <note>
	<pitch>
	  <step>E</step>
	  <octave>3</octave>
	</pitch>
	<duration>20160</duration>
	<type>half</type>
	<lyric number="1">
	  <syllabic>single</syllabic>
	  <text>3rd</text>
	</lyric>
      </note>
      <note>
	<pitch>
	  <step>B</step>
	  <octave>3</octave>
	</pitch>
	<duration>20160</duration>
	<type>half</type>
	<lyric number="1">
	  <syllabic>single</syllabic>
	  <text>7th</text>
	</lyric>
      </note>
    </measure>
    <measure number="11">
      <attributes>
	<divisions>10080</divisions>
      </attributes>
      <harmony>
	<root>
	  <root-step>B</root-step>
	</root>
	<kind>half-diminished</kind>
      </harmony>
      <note>
	<pitch>
	  <step>D</step>
	  <octave>3</octave>
	</pitch>
	<duration>20160</duration>
	<type>half</type>
	<lyric number="1">
	  <syllabic>single</syllabic>
	  <text>3rd</text>
	</lyric>
      </note>
      <note>
	<pitch>
	  <step>A</step>
	  <octave>3</octave>
	</pitch>
	<duration>20160</duration>
	<type>half</type>
	<lyric number="1">
	  <syllabic>single</syllabic>
	  <text>7th</text>
	</lyric>
      </note>
    </measure>
    <measure number="12">
      <print new-system="yes" />
      <attributes>
	<divisions>10080</divisions>
      </attributes>
      <harmony>
	<root>
	  <root-step>E</root-step>
	</root>
	<kind>dominant</kind>
	<degree>
	  <degree-value>2</degree-value>
	  <degree-alter>-1</degree-alter>
	  <degree-type>None</degree-type>
	</degree>
      </harmony>
      <note>
	<pitch>
	  <step>G</step>
	  <alter>1</alter>
	  <octave>3</octave>
	</pitch>
	<duration>20160</duration>
	<type>half</type>
	<accidental>sharp</accidental>
	<lyric number="1">
	  <syllabic>single</syllabic>
	  <text>3rd</text>
	</lyric>
      </note>
      <note>
	<pitch>
	  <step>D</step>
	  <octave>4</octave>
	</pitch>
	<duration>20160</duration>
	<type>half</type>
	<lyric number="1">
	  <syllabic>single</syllabic>
	  <text>7th</text>
	</lyric>
      </note>
    </measure>
    <measure number="13">
      <attributes>
	<divisions>10080</divisions>
      </attributes>
      <harmony>
	<root>
	  <root-step>A</root-step>
	</root>
	<kind>minor-seventh</kind>
      </harmony>
      <note>
	<pitch>
	  <step>C</step>
	  <octave>3</octave>
	</pitch>
	<duration>20160</duration>
	<type>half</type>
	<lyric number="1">
	  <syllabic>single</syllabic>
	  <text>3rd</text>
	</lyric>
      </note>
      <note>
	<pitch>
	  <step>G</step>
	  <alter>0</alter>
	  <octave>3</octave>
	</pitch>
	<duration>20160</duration>
	<type>half</type>
	<accidental>natural</accidental>
	<lyric number="1">
	  <syllabic>single</syllabic>
	  <text>7th</text>
	</lyric>
      </note>
    </measure>
    <measure number="14">
      <attributes>
	<divisions>10080</divisions>
      </attributes>
      <harmony>
	<root>
	  <root-step>A</root-step>
	</root>
	<kind>minor-seventh</kind>
      </harmony>
      <note>
	<pitch>
	  <step>C</step>
	  <octave>3</octave>
	</pitch>
	<duration>20160</duration>
	<type>half</type>
	<lyric number="1">
	  <syllabic>single</syllabic>
	  <text>3rd</text>
	</lyric>
      </note>
      <note>
	<pitch>
	  <step>G</step>
	  <octave>3</octave>
	</pitch>
	<duration>20160</duration>
	<type>half</type>
	<lyric number="1">
	  <syllabic>single</syllabic>
	  <text>7th</text>
	</lyric>
      </note>
    </measure>
    <measure number="15">
      <attributes>
	<divisions>10080</divisions>
      </attributes>
      <harmony>
	<root>
	  <root-step>G</root-step>
	</root>
	<kind>minor-seventh</kind>
      </harmony>
      <note>
	<pitch>
	  <step>B</step>
	  <alter>-1</alter>
	  <octave>2</octave>
	</pitch>
	<duration>20160</duration>
	<type>half</type>
	<accidental>flat</accidental>
	<lyric number="1">
	  <syllabic>single</syllabic>
	  <text>3rd</text>
	</lyric>
      </note>
      <note>
	<pitch>
	  <step>F</step>
	  <octave>3</octave>
	</pitch>
	<duration>20160</duration>
	<type>half</type>
	<lyric number="1">
	  <syllabic>single</syllabic>
	  <text>7th</text>
	</lyric>
      </note>
    </measure>
    <measure number="16">
      <print new-system="yes" />
      <attributes>
	<divisions>10080</divisions>
      </attributes>
      <harmony>
	<root>
	  <root-step>C</root-step>
	</root>
	<kind>dominant</kind>
      </harmony>
      <note>
	<pitch>
	  <step>E</step>
	  <octave>3</octave>
	</pitch>
	<duration>20160</duration>
	<type>half</type>
	<lyric number="1">
	  <syllabic>single</syllabic>
	  <text>3rd</text>
	</lyric>
      </note>
      <note>
	<pitch>
	  <step>B</step>
	  <alter>-1</alter>
	  <octave>3</octave>
	</pitch>
	<duration>20160</duration>
	<type>half</type>
	<accidental>flat</accidental>
	<lyric number="1">
	  <syllabic>single</syllabic>
	  <text>7th</text>
	</lyric>
      </note>
    </measure>
    <measure number="17">
      <attributes>
	<divisions>10080</divisions>
      </attributes>
      <harmony>
	<root>
	  <root-step>F</root-step>
	</root>
	<kind>major-seventh</kind>
      </harmony>
      <note>
	<pitch>
	  <step>A</step>
	  <octave>2</octave>
	</pitch>
	<duration>20160</duration>
	<type>half</type>
	<lyric number="1">
	  <syllabic>single</syllabic>
	  <text>3rd</text>
	</lyric>
      </note>
      <note>
	<pitch>
	  <step>E</step>
	  <octave>3</octave>
	</pitch>
	<duration>20160</duration>
	<type>half</type>
	<lyric number="1">
	  <syllabic>single</syllabic>
	  <text>7th</text>
	</lyric>
      </note>
    </measure>
    <measure number="18">
      <attributes>
	<divisions>10080</divisions>
      </attributes>
      <harmony>
	<root>
	  <root-step>D</root-step>
	</root>
	<kind>minor-seventh</kind>
      </harmony>
      <note>
	<pitch>
	  <step>F</step>
	  <octave>3</octave>
	</pitch>
	<duration>20160</duration>
	<type>half</type>
	<lyric number="1">
	  <syllabic>single</syllabic>
	  <text>3rd</text>
	</lyric>
      </note>
      <note>
	<pitch>
	  <step>C</step>
	  <octave>4</octave>
	</pitch>
	<duration>20160</duration>
	<type>half</type>
	<lyric number="1">
	  <syllabic>single</syllabic>
	  <text>7th</text>
	</lyric>
      </note>
    </measure>
    <measure number="19">
      <attributes>
	<divisions>10080</divisions>
      </attributes>
      <harmony>
	<root>
	  <root-step>A</root-step>
	</root>
	<kind>minor-seventh</kind>
      </harmony>
      <note>
	<pitch>
	  <step>C</step>
	  <octave>3</octave>
	</pitch>
	<duration>20160</duration>
	<type>half</type>
	<lyric number="1">
	  <syllabic>single</syllabic>
	  <text>3rd</text>
	</lyric>
      </note>
      <note>
	<pitch>
	  <step>G</step>
	  <octave>3</octave>
	</pitch>
	<duration>20160</duration>
	<type>half</type>
	<lyric number="1">
	  <syllabic>single</syllabic>
	  <text>7th</text>
	</lyric>
      </note>
    </measure>
    <measure number="20">
      <print new-system="yes" />
      <attributes>
	<divisions>10080</divisions>
      </attributes>
      <harmony>
	<root>
	  <root-step>D</root-step>
	</root>
	<kind>dominant</kind>
      </harmony>
      <note>
	<pitch>
	  <step>F</step>
	  <alter>1</alter>
	  <octave>3</octave>
	</pitch>
	<duration>20160</duration>
	<type>half</type>
	<accidental>sharp</accidental>
	<lyric number="1">
	  <syllabic>single</syllabic>
	  <text>3rd</text>
	</lyric>
      </note>
      <note>
	<pitch>
	  <step>C</step>
	  <octave>4</octave>
	</pitch>
	<duration>20160</duration>
	<type>half</type>
	<lyric number="1">
	  <syllabic>single</syllabic>
	  <text>7th</text>
	</lyric>
      </note>
    </measure>
    <measure number="21">
      <attributes>
	<divisions>10080</divisions>
      </attributes>
      <harmony>
	<root>
	  <root-step>A</root-step>
	</root>
	<kind>minor-seventh</kind>
      </harmony>
      <note>
	<pitch>
	  <step>C</step>
	  <octave>3</octave>
	</pitch>
	<duration>20160</duration>
	<type>half</type>
	<lyric number="1">
	  <syllabic>single</syllabic>
	  <text>3rd</text>
	</lyric>
      </note>
      <note>
	<pitch>
	  <step>G</step>
	  <octave>3</octave>
	</pitch>
	<duration>20160</duration>
	<type>half</type>
	<lyric number="1">
	  <syllabic>single</syllabic>
	  <text>7th</text>
	</lyric>
      </note>
    </measure>
    <measure number="22">
      <attributes>
	<divisions>10080</divisions>
      </attributes>
      <harmony>
	<root>
	  <root-step>B</root-step>
	</root>
	<kind>half-diminished</kind>
      </harmony>
      <note>
	<pitch>
	  <step>D</step>
	  <octave>3</octave>
	</pitch>
	<duration>10080</duration>
	<type>quarter</type>
	<lyric number="1">
	  <syllabic>single</syllabic>
	  <text>3rd</text>
	</lyric>
      </note>
      <note>
	<pitch>
	  <step>A</step>
	  <octave>3</octave>
	</pitch>
	<duration>10080</duration>
	<type>quarter</type>
	<lyric number="1">
	  <syllabic>single</syllabic>
	  <text>7th</text>
	</lyric>
      </note>
      <harmony>
	<root>
	  <root-step>E</root-step>
	</root>
	<kind>dominant</kind>
	<degree>
	  <degree-value>2</degree-value>
	  <degree-alter>-1</degree-alter>
	  <degree-type>None</degree-type>
	</degree>
      </harmony>
      <note>
	<pitch>
	  <step>G</step>
	  <alter>1</alter>
	  <octave>3</octave>
	</pitch>
	<duration>10080</duration>
	<type>quarter</type>
	<accidental>sharp</accidental>
	<lyric number="1">
	  <syllabic>single</syllabic>
	  <text>3rd</text>
	</lyric>
      </note>
      <note>
	<pitch>
	  <step>D</step>
	  <octave>4</octave>
	</pitch>
	<duration>10080</duration>
	<type>quarter</type>
	<lyric number="1">
	  <syllabic>single</syllabic>
	  <text>7th</text>
	</lyric>
      </note>
    </measure>
    <measure number="23">
      <attributes>
	<divisions>10080</divisions>
      </attributes>
      <harmony>
	<root>
	  <root-step>A</root-step>
	</root>
	<kind>minor-seventh</kind>
      </harmony>
      <note>
	<pitch>
	  <step>C</step>
	  <octave>3</octave>
	</pitch>
	<duration>20160</duration>
	<type>half</type>
	<lyric number="1">
	  <syllabic>single</syllabic>
	  <text>3rd</text>
	</lyric>
      </note>
      <note>
	<pitch>
	  <step>G</step>
	  <alter>0</alter>
	  <octave>3</octave>
	</pitch>
	<duration>20160</duration>
	<type>half</type>
	<accidental>natural</accidental>
	<lyric number="1">
	  <syllabic>single</syllabic>
	  <text>7th</text>
	</lyric>
      </note>
    </measure>
    <measure number="24">
      <print new-system="yes" />
      <attributes>
	<divisions>10080</divisions>
      </attributes>
      <harmony>
	<root>
	  <root-step>G</root-step>
	</root>
	<kind>dominant</kind>
      </harmony>
      <note>
	<pitch>
	  <step>B</step>
	  <octave>2</octave>
	</pitch>
	<duration>20160</duration>
	<type>half</type>
	<lyric number="1">
	  <syllabic>single</syllabic>
	  <text>3rd</text>
	</lyric>
      </note>
      <note>
	<pitch>
	  <step>F</step>
	  <octave>3</octave>
	</pitch>
	<duration>20160</duration>
	<type>half</type>
	<lyric number="1">
	  <syllabic>single</syllabic>
	  <text>7th</text>
	</lyric>
      </note>
      <barline location="right">
	<bar-style>light-light</bar-style>
      </barline>
    </measure>
    <measure number="25">
      <attributes>
	<divisions>10080</divisions>
      </attributes>
      <barline location="left">
	<bar-style>light-light</bar-style>
      </barline>
      <harmony>
	<root>
	  <root-step>C</root-step>
	</root>
	<kind>major-seventh</kind>
      </harmony>
      <note>
	<pitch>
	  <step>E</step>
	  <octave>3</octave>
	</pitch>
	<duration>20160</duration>
	<type>half</type>
	<lyric number="1">
	  <syllabic>single</syllabic>
	  <text>3rd</text>
	</lyric>
      </note>
      <note>
	<pitch>
	  <step>B</step>
	  <octave>3</octave>
	</pitch>
	<duration>20160</duration>
	<type>half</type>
	<lyric number="1">
	  <syllabic>single</syllabic>
	  <text>7th</text>
	</lyric>
      </note>
    </measure>
    <measure number="26">
      <attributes>
	<divisions>10080</divisions>
      </attributes>
      <harmony>
	<root>
	  <root-step>F</root-step>
	</root>
	<kind>dominant</kind>
      </harmony>
      <note>
	<pitch>
	  <step>A</step>
	  <octave>2</octave>
	</pitch>
	<duration>20160</duration>
	<type>half</type>
	<lyric number="1">
	  <syllabic>single</syllabic>
	  <text>3rd</text>
	</lyric>
      </note>
      <note>
	<pitch>
	  <step>E</step>
	  <alter>-1</alter>
	  <octave>3</octave>
	</pitch>
	<duration>20160</duration>
	<type>half</type>
	<accidental>flat</accidental>
	<lyric number="1">
	  <syllabic>single</syllabic>
	  <text>7th</text>
	</lyric>
      </note>
    </measure>
    <measure number="27">
      <attributes>
	<divisions>10080</divisions>
      </attributes>
      <harmony>
	<root>
	  <root-step>C</root-step>
	</root>
	<kind>major-seventh</kind>
      </harmony>
      <note>
	<pitch>
	  <step>E</step>
	  <alter>0</alter>
	  <octave>3</octave>
	</pitch>
	<duration>20160</duration>
	<type>half</type>
	<accidental>natural</accidental>
	<lyric number="1">
	  <syllabic>single</syllabic>
	  <text>3rd</text>
	</lyric>
      </note>
      <note>
	<pitch>
	  <step>B</step>
	  <octave>3</octave>
	</pitch>
	<duration>20160</duration>
	<type>half</type>
	<lyric number="1">
	  <syllabic>single</syllabic>
	  <text>7th</text>
	</lyric>
      </note>
    </measure>
    <measure number="28">
      <print new-system="yes" />
      <attributes>
	<divisions>10080</divisions>
      </attributes>
      <harmony>
	<root>
	  <root-step>C</root-step>
	</root>
	<kind>major-seventh</kind>
      </harmony>
      <note>
	<pitch>
	  <step>E</step>
	  <octave>3</octave>
	</pitch>
	<duration>20160</duration>
	<type>half</type>
	<lyric number="1">
	  <syllabic>single</syllabic>
	  <text>3rd</text>
	</lyric>
      </note>
      <note>
	<pitch>
	  <step>B</step>
	  <octave>3</octave>
	</pitch>
	<duration>20160</duration>
	<type>half</type>
	<lyric number="1">
	  <syllabic>single</syllabic>
	  <text>7th</text>
	</lyric>
      </note>
    </measure>
    <measure number="29">
      <attributes>
	<divisions>10080</divisions>
      </attributes>
      <harmony>
	<root>
	  <root-step>G</root-step>
	</root>
	<kind>minor-seventh</kind>
      </harmony>
      <note>
	<pitch>
	  <step>B</step>
	  <alter>-1</alter>
	  <octave>2</octave>
	</pitch>
	<duration>20160</duration>
	<type>half</type>
	<accidental>flat</accidental>
	<lyric number="1">
	  <syllabic>single</syllabic>
	  <text>3rd</text>
	</lyric>
      </note>
      <note>
	<pitch>
	  <step>F</step>
	  <octave>3</octave>
	</pitch>
	<duration>20160</duration>
	<type>half</type>
	<lyric number="1">
	  <syllabic>single</syllabic>
	  <text>7th</text>
	</lyric>
      </note>
    </measure>
    <measure number="30">
      <attributes>
	<divisions>10080</divisions>
      </attributes>
      <harmony>
	<root>
	  <root-step>C</root-step>
	</root>
	<kind>dominant</kind>
      </harmony>
      <note>
	<pitch>
	  <step>E</step>
	  <octave>3</octave>
	</pitch>
	<duration>20160</duration>
	<type>half</type>
	<lyric number="1">
	  <syllabic>single</syllabic>
	  <text>3rd</text>
	</lyric>
      </note>
      <note>
	<pitch>
	  <step>B</step>
	  <alter>-1</alter>
	  <octave>3</octave>
	</pitch>
	<duration>20160</duration>
	<type>half</type>
	<accidental>flat</accidental>
	<lyric number="1">
	  <syllabic>single</syllabic>
	  <text>7th</text>
	</lyric>
      </note>
    </measure>
    <measure number="31">
      <attributes>
	<divisions>10080</divisions>
      </attributes>
      <harmony>
	<root>
	  <root-step>F</root-step>
	</root>
	<kind>major-seventh</kind>
      </harmony>
      <note>
	<pitch>
	  <step>A</step>
	  <octave>2</octave>
	</pitch>
	<duration>20160</duration>
	<type>half</type>
	<lyric number="1">
	  <syllabic>single</syllabic>
	  <text>3rd</text>
	</lyric>
      </note>
      <note>
	<pitch>
	  <step>E</step>
	  <octave>3</octave>
	</pitch>
	<duration>20160</duration>
	<type>half</type>
	<lyric number="1">
	  <syllabic>single</syllabic>
	  <text>7th</text>
	</lyric>
      </note>
    </measure>
    <measure number="32">
      <print new-system="yes" />
      <attributes>
	<divisions>10080</divisions>
      </attributes>
      <harmony>
	<root>
	  <root-step>F</root-step>
	</root>
	<kind>major-seventh</kind>
      </harmony>
      <note>
	<pitch>
	  <step>A</step>
	  <octave>2</octave>
	</pitch>
	<duration>20160</duration>
	<type>half</type>
	<lyric number="1">
	  <syllabic>single</syllabic>
	  <text>3rd</text>
	</lyric>
      </note>
      <note>
	<pitch>
	  <step>E</step>
	  <octave>3</octave>
	</pitch>
	<duration>20160</duration>
	<type>half</type>
	<lyric number="1">
	  <syllabic>single</syllabic>
	  <text>7th</text>
	</lyric>
      </note>
    </measure>
    <measure number="33">
      <attributes>
	<divisions>10080</divisions>
      </attributes>
      <harmony>
	<root>
	  <root-step>D</root-step>
	</root>
	<kind>minor-seventh</kind>
      </harmony>
      <note>
	<pitch>
	  <step>F</step>
	  <octave>3</octave>
	</pitch>
	<duration>20160</duration>
	<type>half</type>
	<lyric number="1">
	  <syllabic>single</syllabic>
	  <text>3rd</text>
	</lyric>
      </note>
      <note>
	<pitch>
	  <step>C</step>
	  <octave>4</octave>
	</pitch>
	<duration>20160</duration>
	<type>half</type>
	<lyric number="1">
	  <syllabic>single</syllabic>
	  <text>7th</text>
	</lyric>
      </note>
    </measure>
    <measure number="34">
      <attributes>
	<divisions>10080</divisions>
      </attributes>
      <harmony>
	<root>
	  <root-step>G</root-step>
	</root>
	<kind>dominant</kind>
      </harmony>
      <note>
	<pitch>
	  <step>B</step>
	  <octave>2</octave>
	</pitch>
	<duration>20160</duration>
	<type>half</type>
	<lyric number="1">
	  <syllabic>single</syllabic>
	  <text>3rd</text>
	</lyric>
      </note>
      <note>
	<pitch>
	  <step>F</step>
	  <octave>3</octave>
	</pitch>
	<duration>20160</duration>
	<type>half</type>
	<lyric number="1">
	  <syllabic>single</syllabic>
	  <text>7th</text>
	</lyric>
      </note>
    </measure>
    <measure number="35">
      <attributes>
	<divisions>10080</divisions>
      </attributes>
      <harmony>
	<root>
	  <root-step>C</root-step>
	</root>
	<kind>major-seventh</kind>
      </harmony>
      <note>
	<pitch>
	  <step>E</step>
	  <octave>3</octave>
	</pitch>
	<duration>20160</duration>
	<type>half</type>
	<lyric number="1">
	  <syllabic>single</syllabic>
	  <text>3rd</text>
	</lyric>
      </note>
      <note>
	<pitch>
	  <step>B</step>
	  <octave>3</octave>
	</pitch>
	<duration>20160</duration>
	<type>half</type>
	<lyric number="1">
	  <syllabic>single</syllabic>
	  <text>7th</text>
	</lyric>
      </note>
    </measure>
    <measure number="36">
      <print new-system="yes" />
      <attributes>
	<divisions>10080</divisions>
      </attributes>
      <harmony>
	<root>
	  <root-step>C</root-step>
	</root>
	<kind>major-seventh</kind>
      </harmony>
      <note>
	<pitch>
	  <step>E</step>
	  <octave>3</octave>
	</pitch>
	<duration>20160</duration>
	<type>half</type>
	<lyric number="1">
	  <syllabic>single</syllabic>
	  <text>3rd</text>
	</lyric>
      </note>
      <note>
	<pitch>
	  <step>B</step>
	  <octave>3</octave>
	</pitch>
	<duration>20160</duration>
	<type>half</type>
	<lyric number="1">
	  <syllabic>single</syllabic>
	  <text>7th</text>
	</lyric>
      </note>
    </measure>
    <measure number="37">
      <attributes>
	<divisions>10080</divisions>
      </attributes>
      <harmony>
	<root>
	  <root-step>F</root-step>
	  <root-alter>1</root-alter>
	</root>
	<kind>half-diminished</kind>
      </harmony>
      <note>
	<pitch>
	  <step>A</step>
	  <octave>2</octave>
	</pitch>
	<duration>20160</duration>
	<type>half</type>
	<lyric number="1">
	  <syllabic>single</syllabic>
	  <text>3rd</text>
	</lyric>
      </note>
      <note>
	<pitch>
	  <step>E</step>
	  <octave>3</octave>
	</pitch>
	<duration>20160</duration>
	<type>half</type>
	<lyric number="1">
	  <syllabic>single</syllabic>
	  <text>7th</text>
	</lyric>
      </note>
    </measure>
    <measure number="38">
      <attributes>
	<divisions>10080</divisions>
      </attributes>
      <harmony>
	<root>
	  <root-step>B</root-step>
	</root>
	<kind>dominant</kind>
	<degree>
	  <degree-value>2</degree-value>
	  <degree-alter>-1</degree-alter>
	  <degree-type>None</degree-type>
	</degree>
      </harmony>
      <note>
	<pitch>
	  <step>D</step>
	  <alter>1</alter>
	  <octave>3</octave>
	</pitch>
	<duration>20160</duration>
	<type>half</type>
	<accidental>sharp</accidental>
	<lyric number="1">
	  <syllabic>single</syllabic>
	  <text>3rd</text>
	</lyric>
      </note>
      <note>
	<pitch>
	  <step>A</step>
	  <octave>3</octave>
	</pitch>
	<duration>20160</duration>
	<type>half</type>
	<lyric number="1">
	  <syllabic>single</syllabic>
	  <text>7th</text>
	</lyric>
      </note>
    </measure>
    <measure number="39">
      <attributes>
	<divisions>10080</divisions>
      </attributes>
      <harmony>
	<root>
	  <root-step>E</root-step>
	</root>
	<kind>minor-seventh</kind>
      </harmony>
      <note>
	<pitch>
	  <step>G</step>
	  <octave>3</octave>
	</pitch>
	<duration>10080</duration>
	<type>quarter</type>
	<lyric number="1">
	  <syllabic>single</syllabic>
	  <text>3rd</text>
	</lyric>
      </note>
      <note>
	<pitch>
	  <step>D</step>
	  <alter>0</alter>
	  <octave>4</octave>
	</pitch>
	<duration>10080</duration>
	<type>quarter</type>
	<accidental>natural</accidental>
	<lyric number="1">
	  <syllabic>single</syllabic>
	  <text>7th</text>
	</lyric>
      </note>
      <harmony>
	<root>
	  <root-step>A</root-step>
	</root>
	<kind>dominant</kind>
      </harmony>
      <note>
	<pitch>
	  <step>C</step>
	  <alter>1</alter>
	  <octave>3</octave>
	</pitch>
	<duration>10080</duration>
	<type>quarter</type>
	<accidental>sharp</accidental>
	<lyric number="1">
	  <syllabic>single</syllabic>
	  <text>3rd</text>
	</lyric>
      </note>
      <note>
	<pitch>
	  <step>G</step>
	  <octave>3</octave>
	</pitch>
	<duration>10080</duration>
	<type>quarter</type>
	<lyric number="1">
	  <syllabic>single</syllabic>
	  <text>7th</text>
	</lyric>
      </note>
    </measure>
    <measure number="40">
      <print new-system="yes" />
      <attributes>
	<divisions>10080</divisions>
      </attributes>
      <harmony>
	<root>
	  <root-step>D</root-step>
	</root>
	<kind>minor-seventh</kind>
      </harmony>
      <note>
	<pitch>
	  <step>F</step>
	  <octave>3</octave>
	</pitch>
	<duration>10080</duration>
	<type>quarter</type>
	<lyric number="1">
	  <syllabic>single</syllabic>
	  <text>3rd</text>
	</lyric>
      </note>
      <note>
	<pitch>
	  <step>C</step>
	  <alter>0</alter>
	  <octave>4</octave>
	</pitch>
	<duration>10080</duration>
	<type>quarter</type>
	<accidental>natural</accidental>
	<lyric number="1">
	  <syllabic>single</syllabic>
	  <text>7th</text>
	</lyric>
      </note>
      <harmony>
	<root>
	  <root-step>G</root-step>
	</root>
	<kind>dominant</kind>
      </harmony>
      <note>
	<pitch>
	  <step>B</step>
	  <octave>2</octave>
	</pitch>
	<duration>10080</duration>
	<type>quarter</type>
	<lyric number="1">
	  <syllabic>single</syllabic>
	  <text>3rd</text>
	</lyric>
      </note>
      <note>
	<pitch>
	  <step>F</step>
	  <octave>3</octave>
	</pitch>
	<duration>10080</duration>
	<type>quarter</type>
	<lyric number="1">
	  <syllabic>single</syllabic>
	  <text>7th</text>
	</lyric>
      </note>
      <barline location="right">
	<bar-style>light-light</bar-style>
      </barline>
    </measure>
    <measure number="41">
      <attributes>
	<divisions>10080</divisions>
      </attributes>
      <barline location="left">
	<bar-style>light-light</bar-style>
      </barline>
      <harmony>
	<root>
	  <root-step>A</root-step>
	</root>
	<kind>minor-seventh</kind>
      </harmony>
      <note>
	<pitch>
	  <step>C</step>
	  <octave>3</octave>
	</pitch>
	<duration>20160</duration>
	<type>half</type>
	<lyric number="1">
	  <syllabic>single</syllabic>
	  <text>3rd</text>
	</lyric>
      </note>
      <note>
	<pitch>
	  <step>G</step>
	  <octave>3</octave>
	</pitch>
	<duration>20160</duration>
	<type>half</type>
	<lyric number="1">
	  <syllabic>single</syllabic>
	  <text>7th</text>
	</lyric>
      </note>
    </measure>
    <measure number="42">
      <attributes>
	<divisions>10080</divisions>
      </attributes>
      <harmony>
	<root>
	  <root-step>A</root-step>
	</root>
	<kind>minor-seventh</kind>
	<inversion>3</inversion>
	<bass>
	  <bass-step>G</bass-step>
	</bass>
      </harmony>
      <note>
	<pitch>
	  <step>C</step>
	  <octave>3</octave>
	</pitch>
	<duration>20160</duration>
	<type>half</type>
	<lyric number="1">
	  <syllabic>single</syllabic>
	  <text>3rd</text>
	</lyric>
      </note>
      <note>
	<pitch>
	  <step>G</step>
	  <octave>2</octave>
	</pitch>
	<duration>20160</duration>
	<type>half</type>
	<lyric number="1">
	  <syllabic>single</syllabic>
	  <text>7th</text>
	</lyric>
      </note>
    </measure>
    <measure number="43">
      <attributes>
	<divisions>10080</divisions>
      </attributes>
      <harmony>
	<root>
	  <root-step>D</root-step>
	</root>
	<kind>dominant</kind>
	<inversion>1</inversion>
	<bass>
	  <bass-step>F</bass-step>
	  <bass-alter>1</bass-alter>
	</bass>
      </harmony>
      <note>
	<pitch>
	  <step>F</step>
	  <alter>1</alter>
	  <octave>3</octave>
	</pitch>
	<duration>20160</duration>
	<type>half</type>
	<accidental>sharp</accidental>
	<lyric number="1">
	  <syllabic>single</syllabic>
	  <text>3rd</text>
	</lyric>
      </note>
      <note>
	<pitch>
	  <step>C</step>
	  <octave>4</octave>
	</pitch>
	<duration>20160</duration>
	<type>half</type>
	<lyric number="1">
	  <syllabic>single</syllabic>
	  <text>7th</text>
	</lyric>
      </note>
    </measure>
    <measure number="44">
      <print new-system="yes" />
      <attributes>
	<divisions>10080</divisions>
      </attributes>
      <harmony>
	<root>
	  <root-step>D</root-step>
	</root>
	<kind>minor-seventh</kind>
	<inversion>1</inversion>
	<bass>
	  <bass-step>F</bass-step>
	</bass>
      </harmony>
      <note>
	<pitch>
	  <step>F</step>
	  <alter>0</alter>
	  <octave>3</octave>
	</pitch>
	<duration>20160</duration>
	<type>half</type>
	<accidental>natural</accidental>
	<lyric number="1">
	  <syllabic>single</syllabic>
	  <text>3rd</text>
	</lyric>
      </note>
      <note>
	<pitch>
	  <step>C</step>
	  <octave>4</octave>
	</pitch>
	<duration>20160</duration>
	<type>half</type>
	<lyric number="1">
	  <syllabic>single</syllabic>
	  <text>7th</text>
	</lyric>
      </note>
    </measure>
    <measure number="45">
      <attributes>
	<divisions>10080</divisions>
      </attributes>
      <harmony>
	<root>
	  <root-step>A</root-step>
	</root>
	<kind>minor-seventh</kind>
      </harmony>
      <note>
	<pitch>
	  <step>C</step>
	  <octave>3</octave>
	</pitch>
	<duration>20160</duration>
	<type>half</type>
	<lyric number="1">
	  <syllabic>single</syllabic>
	  <text>3rd</text>
	</lyric>
      </note>
      <note>
	<pitch>
	  <step>G</step>
	  <octave>3</octave>
	</pitch>
	<duration>20160</duration>
	<type>half</type>
	<lyric number="1">
	  <syllabic>single</syllabic>
	  <text>7th</text>
	</lyric>
      </note>
    </measure>
    <measure number="46">
      <attributes>
	<divisions>10080</divisions>
      </attributes>
      <harmony>
	<root>
	  <root-step>B</root-step>
	</root>
	<kind>half-diminished</kind>
      </harmony>
      <note>
	<pitch>
	  <step>D</step>
	  <octave>3</octave>
	</pitch>
	<duration>10080</duration>
	<type>quarter</type>
	<lyric number="1">
	  <syllabic>single</syllabic>
	  <text>3rd</text>
	</lyric>
      </note>
      <note>
	<pitch>
	  <step>A</step>
	  <octave>3</octave>
	</pitch>
	<duration>10080</duration>
	<type>quarter</type>
	<lyric number="1">
	  <syllabic>single</syllabic>
	  <text>7th</text>
	</lyric>
      </note>
      <harmony>
	<root>
	  <root-step>E</root-step>
	</root>
	<kind>dominant</kind>
	<degree>
	  <degree-value>2</degree-value>
	  <degree-alter>-1</degree-alter>
	  <degree-type>None</degree-type>
	</degree>
      </harmony>
      <note>
	<pitch>
	  <step>G</step>
	  <alter>1</alter>
	  <octave>3</octave>
	</pitch>
	<duration>10080</duration>
	<type>quarter</type>
	<accidental>sharp</accidental>
	<lyric number="1">
	  <syllabic>single</syllabic>
	  <text>3rd</text>
	</lyric>
      </note>
      <note>
	<pitch>
	  <step>D</step>
	  <octave>4</octave>
	</pitch>
	<duration>10080</duration>
	<type>quarter</type>
	<lyric number="1">
	  <syllabic>single</syllabic>
	  <text>7th</text>
	</lyric>
      </note>
    </measure>
    <measure number="47">
      <attributes>
	<divisions>10080</divisions>
      </attributes>
      <harmony>
	<root>
	  <root-step>A</root-step>
	</root>
	<kind>minor-seventh</kind>
      </harmony>
      <note>
	<pitch>
	  <step>C</step>
	  <octave>3</octave>
	</pitch>
	<duration>20160</duration>
	<type>half</type>
	<lyric number="1">
	  <syllabic>single</syllabic>
	  <text>3rd</text>
	</lyric>
      </note>
      <note>
	<pitch>
	  <step>G</step>
	  <alter>0</alter>
	  <octave>3</octave>
	</pitch>
	<duration>20160</duration>
	<type>half</type>
	<accidental>natural</accidental>
	<lyric number="1">
	  <syllabic>single</syllabic>
	  <text>7th</text>
	</lyric>
      </note>
    </measure>
    <measure number="48">
      <print new-system="yes" />
      <attributes>
	<divisions>10080</divisions>
      </attributes>
      <harmony>
	<root>
	  <root-step>A</root-step>
	</root>
	<kind>minor-seventh</kind>
      </harmony>
      <note>
	<pitch>
	  <step>C</step>
	  <octave>3</octave>
	</pitch>
	<duration>20160</duration>
	<type>half</type>
	<lyric number="1">
	  <syllabic>single</syllabic>
	  <text>3rd</text>
	</lyric>
      </note>
      <note>
	<pitch>
	  <step>G</step>
	  <octave>3</octave>
	</pitch>
	<duration>20160</duration>
	<type>half</type>
	<lyric number="1">
	  <syllabic>single</syllabic>
	  <text>7th</text>
	</lyric>
      </note>
      <barline location="right">
	<bar-style>light-heavy</bar-style>
      </barline>
    </measure>
  </part>
</score-partwise>
